<svg width="166" height="166" viewBox="0 0 166 166" fill="none" xmlns="http://www.w3.org/2000/svg">
<path d="M0 0H166V166H0V0Z" fill="url(#paint0_linear_321_5715)"/>
<path d="M58.8597 39.6937H116.126V49.1227H66.3013L58.8597 39.6937Z" fill="white"/>
<path d="M125.567 44.429C125.567 49.6365 121.36 53.858 116.169 53.858C110.979 53.858 106.771 49.6365 106.771 44.429C106.771 39.2215 110.979 35 116.169 35C121.36 35 125.567 39.2215 125.567 44.429Z" fill="white"/>
<path d="M41 78.5177H98.266V87.9468H48.4416L41 78.5177Z" fill="white"/>
<path d="M107.707 83.253C107.707 88.4606 103.5 92.6821 98.3095 92.6821C93.1191 92.6821 88.9115 88.4606 88.9115 83.253C88.9115 78.0455 93.1191 73.824 98.3095 73.824C103.5 73.824 107.707 78.0455 107.707 83.253Z" fill="white"/>
<path d="M58.8597 117.342H116.126V126.771H66.3013L58.8597 117.342Z" fill="white"/>
<path d="M125.567 122.077C125.567 127.285 121.36 131.506 116.169 131.506C110.979 131.506 106.771 127.285 106.771 122.077C106.771 116.87 110.979 112.648 116.169 112.648C121.36 112.648 125.567 116.87 125.567 122.077Z" fill="white"/>
<defs>
<linearGradient id="paint0_linear_321_5715" x1="17.5763" y1="26.2086" x2="87.277" y2="112.004" gradientUnits="userSpaceOnUse">
<stop stop-color="#15E6CD"/>
<stop offset="1" stop-color="#037FFF"/>
</linearGradient>
</defs>
</svg>
