<svg width="32" height="32" viewBox="0 0 32 32" fill="none" xmlns="http://www.w3.org/2000/svg">
  <rect width="32" height="32" rx="16" fill="#fff"/>
  <g>
    <polygon fill="#E2761B" points="27.8,5.2 17.5,12.6 19.4,8.5 "/>
    <polygon fill="#E4761B" points="4.2,5.2 12.5,8.5 14.4,12.6 "/>
    <polygon fill="#D7C1B3" points="23.6,22.7 20.7,24.9 22.2,26.2 23.6,22.7 "/>
    <polygon fill="#D7C1B3" points="8.4,22.7 9.8,26.2 11.3,24.9 8.4,22.7 "/>
    <polygon fill="#EA8D3A" points="11.2,17.2 10.8,19.7 15.9,20 15.9,14.7 "/>
    <polygon fill="#EA8D3A" points="20.8,17.2 16,14.7 16,20 21.1,19.7 "/>
    <polygon fill="#F6851B" points="11.3,24.9 15.8,22.9 11.2,20.5 "/>
    <polygon fill="#F6851B" points="20.7,24.9 16.2,22.9 20.8,20.5 "/>
    <polygon fill="#C0AD9E" points="16.2,22.9 15.8,22.9 15.9,20 16,20 "/>
    <polygon fill="#161616" points="15.9,14.7 10.8,17.2 12.7,18.6 15.9,17.5 "/>
    <polygon fill="#161616" points="16,14.7 16,17.5 19.2,18.6 21.1,17.2 "/>
    <polygon fill="#763D16" points="21.1,17.2 19.2,18.6 21.1,19.7 "/>
    <polygon fill="#763D16" points="10.8,17.2 11.2,19.7 12.7,18.6 "/>
    <polygon fill="#F6851B" points="12.7,18.6 11.2,19.7 15.9,20 15.9,17.5 "/>
    <polygon fill="#F6851B" points="19.2,18.6 16,17.5 16,20 21.1,19.7 "/>
  </g>
</svg>
